<?xml version="1.0" encoding="UTF-8" standalone="no"?>
<!-- Generator: Adobe Illustrator 16.0.0, SVG Export Plug-In . SVG Version: 6.00 Build 0)  -->

<svg
   xmlns:dc="http://purl.org/dc/elements/1.1/"
   xmlns:cc="http://creativecommons.org/ns#"
   xmlns:rdf="http://www.w3.org/1999/02/22-rdf-syntax-ns#"
   xmlns:svg="http://www.w3.org/2000/svg"
   xmlns="http://www.w3.org/2000/svg"
   xmlns:sodipodi="http://sodipodi.sourceforge.net/DTD/sodipodi-0.dtd"
   xmlns:inkscape="http://www.inkscape.org/namespaces/inkscape"
   version="1.1"
   id="Layer_1"
   x="0px"
   y="0px"
   width="48px"
   height="48px"
   viewBox="0 0 48 48"
   enable-background="new 0 0 48 48"
   xml:space="preserve"
   sodipodi:docname="cell.svg"
   inkscape:version="0.92.2 (5c3e80d, 2017-08-06)"><metadata
     id="metadata4064"><rdf:RDF><cc:Work
         rdf:about=""><dc:format>image/svg+xml</dc:format><dc:type
           rdf:resource="http://purl.org/dc/dcmitype/StillImage" /></cc:Work></rdf:RDF></metadata><defs
     id="defs4062" /><sodipodi:namedview
     pagecolor="#ffffff"
     bordercolor="#666666"
     borderopacity="1"
     objecttolerance="10"
     gridtolerance="10"
     guidetolerance="10"
     inkscape:pageopacity="0"
     inkscape:pageshadow="2"
     inkscape:window-width="2418"
     inkscape:window-height="1409"
     id="namedview4060"
     showgrid="false"
     inkscape:zoom="24.479167"
     inkscape:cx="28.580159"
     inkscape:cy="26.58379"
     inkscape:window-x="133"
     inkscape:window-y="-9"
     inkscape:window-maximized="1"
     inkscape:current-layer="Layer_1" /><g
     id="g4057"
     style="stroke:#000000;stroke-opacity:0.00892857;fill:#ffffff;stroke-width:0.1;stroke-miterlimit:4;stroke-dasharray:none"><g
       id="g4055"
       style="stroke:#000000;stroke-opacity:0.00892857;fill:#ffffff;stroke-width:0.1;stroke-miterlimit:4;stroke-dasharray:none"><path
         fill-rule="evenodd"
         clip-rule="evenodd"
         d="M25.795,47.644c-1.196,0-2.393,0-3.59,0c-0.826-0.129-1.653-0.25-2.477-0.389    c-9.251-1.56-16.959-8.795-19.063-17.929C0.378,28.084,0.218,26.812,0,25.552c0-1.153,0-2.307,0-3.46    c0.126-0.805,0.238-1.613,0.38-2.415C2.043,10.322,9.217,2.76,18.44,0.664C19.682,0.382,20.949,0.218,22.205,0    c1.197,0,2.394,0,3.59,0c1.063,0.175,2.141,0.283,3.184,0.536c9.589,2.33,15.754,8.23,18.351,17.783    c0.333,1.228,0.452,2.514,0.671,3.772c0,1.153,0,2.307,0,3.46c-0.127,0.805-0.217,1.615-0.386,2.41    c-2.126,10.033-8.203,16.331-18.049,19.014C28.339,47.31,27.054,47.425,25.795,47.644z M23.986,44.687    c11.59,0.021,20.991-9.362,21-20.964c0.009-11.393-9.504-20.793-21.004-20.755C12.419,3.002,3.035,12.309,3.015,23.76    C2.994,35.29,12.389,44.665,23.986,44.687z"
         id="path4051"
         style="stroke:#000000;stroke-opacity:0.00892857;fill:#ffffff;stroke-width:0.1;stroke-miterlimit:4;stroke-dasharray:none" /><path
         fill-rule="evenodd"
         clip-rule="evenodd"
         d="M10.459,15.351c-0.089-1.137,0.32-2.035,1.179-2.764    c0.388-0.329,0.747-0.697,1.088-1.074c1.84-2.031,5.041-1.007,5.854,1.479c0.364,1.112,0.655,2.249,0.934,3.385    c0.315,1.283-0.014,2.4-0.96,3.338c-1.17,1.16-1.18,1.172-0.527,2.689c1.663,3.866,4.528,6.422,8.5,7.764    c0.382,0.129,0.663,0.092,0.93-0.231c0.238-0.29,0.524-0.54,0.795-0.803c0.925-0.892,2.037-1.129,3.254-0.844    c1.096,0.254,2.177,0.571,3.263,0.871c2.552,0.705,3.81,3.999,1.553,5.957c-0.435,0.376-0.841,0.79-1.229,1.215    c-0.615,0.671-1.388,0.912-2.265,0.902C21.955,37.111,12.563,29.082,10.8,18.386C10.634,17.382,10.569,16.363,10.459,15.351z"
         id="path4053"
         style="stroke:#000000;stroke-opacity:0.00892857;fill:#ffffff;stroke-width:0.1;stroke-miterlimit:4;stroke-dasharray:none" /></g></g></svg>