<?xml version="1.0" encoding="utf-8"?>
<!-- Generator: Adobe Illustrator 16.0.0, SVG Export Plug-In . SVG Version: 6.00 Build 0)  -->
<!DOCTYPE svg PUBLIC "-//W3C//DTD SVG 1.1//EN" "http://www.w3.org/Graphics/SVG/1.1/DTD/svg11.dtd">
<svg version="1.1" id="Layer_1" xmlns="http://www.w3.org/2000/svg" xmlns:xlink="http://www.w3.org/1999/xlink" x="0px" y="0px"
	 width="48px" height="48px" viewBox="0 0 48 48" enable-background="new 0 0 48 48" xml:space="preserve">
<g>
	<g>
		<path fill-rule="evenodd" clip-rule="evenodd" fill="#E2BF2F" d="M-0.097,16.361c0.188-0.274,0.388-0.521,0.775-0.504
			c0.388,0.019,0.688,0.282,0.718,0.664c0.011,0.132,0.007,0.266,0.007,0.399c0,8.808,0,17.615,0.001,26.423
			c0,1.593,0.955,2.833,2.46,3.184c0.268,0.063,0.551,0.086,0.828,0.086c12.899,0.004,25.799,0.004,38.7,0.003
			c1.927,0,3.292-1.354,3.293-3.269c0.002-8.839,0-17.677,0.002-26.514c0-0.154-0.009-0.313,0.026-0.458
			c0.09-0.346,0.43-0.549,0.815-0.511c0.332,0.033,0.612,0.305,0.647,0.64c0.009,0.102,0.003,0.205,0.003,0.307
			c0,8.859,0,17.717,0,26.577c0,2.403-1.59,4.26-3.983,4.655c-0.037,0.006-0.07,0.034-0.107,0.051c-13.364,0-26.729,0-40.096,0
			c-0.045-0.02-0.09-0.047-0.138-0.057c-1.796-0.314-3.018-1.328-3.68-3.001c-0.126-0.317-0.184-0.662-0.272-0.994
			C-0.097,34.816-0.097,25.588-0.097,16.361z"/>
		<path fill-rule="evenodd" clip-rule="evenodd" fill="#E2BF2F" d="M12.917,0.279c0.417,0.184,0.57,0.493,0.567,0.95
			c-0.015,2.587-0.006,5.176-0.008,7.763c0,0.417-0.256,0.732-0.627,0.794c-0.342,0.057-0.693-0.136-0.814-0.469
			c-0.043-0.12-0.051-0.258-0.052-0.389c-0.003-1.023-0.001-2.046-0.001-3.068c0-0.11,0-0.22,0-0.365c-0.141,0-0.251,0-0.361,0
			c-2.324,0-4.647-0.001-6.971,0C2.786,5.496,1.407,6.862,1.405,8.711c-0.002,1.083-0.001,2.164-0.001,3.27
			c15.095,0,30.166,0,45.264,0c0.006-0.098,0.015-0.197,0.015-0.295c0-0.993,0.003-1.984,0-2.977
			c-0.003-1.849-1.381-3.212-3.246-3.214c-1.652-0.001-3.306,0.001-4.957-0.001c-0.507,0-0.829-0.269-0.85-0.699
			c-0.022-0.451,0.276-0.773,0.757-0.778c0.877-0.009,1.754-0.004,2.633-0.004c0.92,0,1.839-0.014,2.758,0.011
			c2.133,0.056,4.075,1.784,4.336,3.883c0.083,0.666,0.058,1.345,0.063,2.02c0.011,0.89,0.003,1.78,0.003,2.67
			c0,0.627-0.264,0.888-0.902,0.888c-8.344,0.001-16.688,0-25.033,0c-7.105,0-14.211-0.003-21.316,0.008
			c-0.453,0.001-0.802-0.1-1.024-0.506c0-1.637,0-3.273,0-4.91c0.03-0.127,0.062-0.254,0.09-0.381
			c0.502-2.208,2.332-3.673,4.621-3.68c2.323-0.007,4.646-0.002,6.969-0.002c0.12,0,0.241,0,0.398,0c0-0.148,0-0.257,0-0.367
			c0-0.807,0.018-1.616-0.007-2.422c-0.014-0.458,0.144-0.769,0.57-0.943C12.669,0.279,12.793,0.279,12.917,0.279z"/>
		<path fill-rule="evenodd" clip-rule="evenodd" fill="#E2BF2F" d="M35.6,0.279c0.409,0.221,0.517,0.563,0.513,1.014
			c-0.018,2.556-0.021,5.113,0.002,7.669c0.005,0.623-0.585,0.991-1.056,0.765c-0.308-0.148-0.452-0.395-0.451-0.738
			c0.004-1.043,0.002-2.086,0.002-3.129c0-0.11,0-0.221,0-0.366c-0.146,0-0.267,0-0.387,0c-6.102,0-12.205,0-18.305-0.001
			c-0.517,0-0.807-0.185-0.9-0.571c-0.109-0.455,0.197-0.873,0.668-0.905c0.134-0.009,0.269-0.006,0.402-0.006
			c6.029,0,12.06,0,18.088,0c0.133,0,0.264,0,0.434,0c0-0.435,0-0.841,0-1.246c0-0.512,0.02-1.024-0.007-1.534
			c-0.023-0.455,0.148-0.766,0.563-0.953C35.311,0.279,35.455,0.279,35.6,0.279z"/>
		<path fill-rule="evenodd" clip-rule="evenodd" fill="#E2BF2F" d="M16.02,36.801c0,1.554,0.001,3.11,0,4.665
			c0,0.585-0.277,0.859-0.87,0.859c-2.84,0-5.681,0-8.521,0c-0.589,0-0.884-0.281-0.884-0.858c-0.002-3.13-0.003-6.261,0-9.39
			c0-0.553,0.307-0.854,0.865-0.855c2.851-0.002,5.701-0.002,8.552,0c0.565,0.001,0.857,0.296,0.857,0.853
			C16.021,33.65,16.02,35.226,16.02,36.801z M7.296,32.732c0,2.715,0,5.407,0,8.095c2.419,0,4.81,0,7.213,0c0-2.707,0-5.391,0-8.095
			C12.101,32.732,9.71,32.732,7.296,32.732z"/>
		<path fill-rule="evenodd" clip-rule="evenodd" fill="#E2BF2F" d="M16.02,23.33c0,1.555,0.001,3.109,0,4.664
			c0,0.6-0.283,0.882-0.889,0.882c-2.83,0.002-5.659,0.002-8.489,0c-0.597,0-0.897-0.295-0.897-0.884
			c-0.002-3.12-0.002-6.239,0-9.359c0-0.575,0.298-0.859,0.884-0.859c2.84-0.001,5.68-0.001,8.52,0c0.591,0,0.87,0.275,0.871,0.861
			C16.021,20.201,16.02,21.764,16.02,23.33z M14.514,19.272c-2.425,0-4.824,0-7.229,0c0,2.707,0,5.393,0,8.089
			c2.418,0,4.818,0,7.229,0C14.514,24.661,14.514,21.983,14.514,19.272z"/>
		<path fill-rule="evenodd" clip-rule="evenodd" fill="#E2BF2F" d="M32.064,36.761c0-1.556,0-3.11,0.001-4.665
			c0.001-0.577,0.289-0.874,0.869-0.874c2.841-0.002,5.68-0.002,8.521,0c0.589,0,0.891,0.305,0.891,0.896
			c0.002,3.108,0.002,6.22,0,9.329c0,0.596-0.291,0.879-0.896,0.879c-2.829,0-5.658,0-8.489,0c-0.633,0-0.895-0.265-0.895-0.9
			C32.064,39.87,32.064,38.315,32.064,36.761z M33.579,40.827c2.416,0,4.814,0,7.229,0c0-2.706,0-5.391,0-8.093
			c-2.417,0-4.817,0-7.229,0C33.579,35.44,33.579,38.126,33.579,40.827z"/>
		<path fill-rule="evenodd" clip-rule="evenodd" fill="#E2BF2F" d="M32.064,23.298c0-1.556,0-3.11,0.001-4.665
			c0.001-0.582,0.284-0.859,0.876-0.859c2.84-0.001,5.681-0.001,8.521,0c0.581,0,0.884,0.289,0.884,0.86
			c0.002,3.12,0.002,6.24,0,9.36c0,0.586-0.303,0.882-0.902,0.882c-2.829,0.002-5.658,0.002-8.487,0
			c-0.604,0-0.89-0.285-0.891-0.883C32.064,26.428,32.064,24.862,32.064,23.298z M33.577,27.364c2.418,0,4.818,0,7.23,0
			c0-2.707,0-5.392,0-8.094c-2.418,0-4.817,0-7.23,0C33.577,21.976,33.577,24.66,33.577,27.364z"/>
		<path fill-rule="evenodd" clip-rule="evenodd" fill="#E2BF2F" d="M18.91,23.316c0-1.534,0-3.068,0-4.603
			c0.001-0.691,0.252-0.939,0.949-0.939c2.798,0,5.598-0.001,8.396,0c0.654,0,0.923,0.259,0.923,0.904
			c0.003,3.099,0.003,6.199,0,9.298c0,0.623-0.281,0.9-0.903,0.9c-2.819,0.001-5.638,0.001-8.457,0
			c-0.626,0-0.905-0.274-0.906-0.896C18.909,26.426,18.91,24.87,18.91,23.316z M27.645,27.371c0-2.722,0-5.414,0-8.104
			c-2.417,0-4.807,0-7.21,0c0,2.707,0,5.398,0,8.104C22.845,27.371,25.235,27.371,27.645,27.371z"/>
		<path fill-rule="evenodd" clip-rule="evenodd" fill="#E2BF2F" d="M18.91,36.786c0-1.545,0-3.09,0.001-4.633
			c0-0.664,0.27-0.933,0.936-0.933c2.799,0,5.598,0,8.396,0c0.665,0.001,0.935,0.271,0.936,0.935c0.002,3.079,0.001,6.157,0,9.235
			c-0.001,0.691-0.251,0.935-0.954,0.935c-2.799,0-5.597,0-8.396,0c-0.658,0-0.917-0.253-0.917-0.904
			C18.909,39.874,18.91,38.331,18.91,36.786z M20.439,32.729c0,2.719,0,5.41,0,8.104c2.415,0,4.806,0,7.211,0
			c0-2.706,0-5.397,0-8.104C25.241,32.729,22.851,32.729,20.439,32.729z"/>
	</g>
</g>
</svg>
