<?xml version="1.0" encoding="UTF-8" standalone="no"?>
<!-- Generator: Adobe Illustrator 16.0.0, SVG Export Plug-In . SVG Version: 6.00 Build 0)  -->

<svg
   xmlns:dc="http://purl.org/dc/elements/1.1/"
   xmlns:cc="http://creativecommons.org/ns#"
   xmlns:rdf="http://www.w3.org/1999/02/22-rdf-syntax-ns#"
   xmlns:svg="http://www.w3.org/2000/svg"
   xmlns="http://www.w3.org/2000/svg"
   xmlns:sodipodi="http://sodipodi.sourceforge.net/DTD/sodipodi-0.dtd"
   xmlns:inkscape="http://www.inkscape.org/namespaces/inkscape"
   version="1.1"
   id="Layer_1"
   x="0px"
   y="0px"
   width="48px"
   height="48px"
   viewBox="0 0 48 48"
   enable-background="new 0 0 48 48"
   xml:space="preserve"
   sodipodi:docname="fb.svg"
   inkscape:version="0.92.2 (5c3e80d, 2017-08-06)"><metadata
     id="metadata4915"><rdf:RDF><cc:Work
         rdf:about=""><dc:format>image/svg+xml</dc:format><dc:type
           rdf:resource="http://purl.org/dc/dcmitype/StillImage" /></cc:Work></rdf:RDF></metadata><defs
     id="defs4913" /><sodipodi:namedview
     pagecolor="#ffffff"
     bordercolor="#666666"
     borderopacity="1"
     objecttolerance="10"
     gridtolerance="10"
     guidetolerance="10"
     inkscape:pageopacity="0"
     inkscape:pageshadow="2"
     inkscape:window-width="2418"
     inkscape:window-height="1409"
     id="namedview4911"
     showgrid="false"
     inkscape:zoom="24.479167"
     inkscape:cx="16.810213"
     inkscape:cy="24"
     inkscape:window-x="133"
     inkscape:window-y="-9"
     inkscape:window-maximized="1"
     inkscape:current-layer="Layer_1" /><g
     id="g4908"
     style="fill:#ffffff;fill-opacity:0.96875;stroke:#ffffff;stroke-opacity:1;stroke-width:0.37795276;stroke-miterlimit:4;stroke-dasharray:none"><g
       id="g4906"
       style="fill:#ffffff;fill-opacity:0.96875;stroke:#ffffff;stroke-opacity:1;stroke-width:0.37795276;stroke-miterlimit:4;stroke-dasharray:none"><path
         fill-rule="evenodd"
         clip-rule="evenodd"
         d="M26.073,0.025c1.27,0.221,2.552,0.387,3.808,0.672    c9.309,2.113,16.586,9.771,18.246,19.165c2.325,13.136-6.461,25.68-19.557,27.917c-12.703,2.169-24.604-5.429-27.823-17.79    c-0.302-1.162-0.415-2.372-0.62-3.561C0.093,26.233,0.042,26.038,0,25.845c0-1.166,0-2.331,0-3.497    c0.131-0.834,0.255-1.672,0.395-2.506C1.925,10.638,9.473,2.682,18.57,0.708c1.28-0.278,2.582-0.458,3.873-0.683    C23.653,0.025,24.861,0.025,26.073,0.025z M46.327,24.125c0.021-12.056-9.898-21.917-22.058-21.931    c-12.176-0.011-22.07,9.838-22.078,21.98C2.183,36.102,12.123,45.979,24.149,46C36.377,46.018,46.31,36.222,46.327,24.125z"
         id="path4902"
         style="fill:#ffffff;fill-opacity:0.96875;stroke:#ffffff;stroke-opacity:1;stroke-width:0.37795276;stroke-miterlimit:4;stroke-dasharray:none" /><path
         fill-rule="evenodd"
         clip-rule="evenodd"
         d="M25.191,24.083c0,4.661,0,9.223,0,13.838c-1.543,0-3.032,0-4.591,0    c0-4.581,0-9.162,0-13.815c-0.975,0-1.879,0-2.82,0c0-1.541,0-3.011,0-4.562c0.89,0,1.794,0,2.796,0    c0-0.536-0.021-0.998,0.004-1.457c0.07-1.293,0.059-2.604,0.265-3.876c0.382-2.36,1.724-3.578,4.106-3.926    c0.245-0.035,0.491-0.035,0.739-0.036c1.673-0.002,3.346-0.002,5.056-0.002c0,1.532,0,3.001,0,4.576c-0.902,0-1.81,0-2.718,0    c-2.303,0-2.842,0.541-2.842,2.851c-0.004,0.598,0,1.196,0,1.845c1.817,0,3.534,0,5.345,0c-0.245,1.55-0.482,3.038-0.724,4.565    C28.282,24.083,26.786,24.083,25.191,24.083z"
         id="path4904"
         style="fill:#ffffff;fill-opacity:0.96875;stroke:#ffffff;stroke-opacity:1;stroke-width:0.37795276;stroke-miterlimit:4;stroke-dasharray:none" /></g></g></svg>