<?xml version="1.0" encoding="UTF-8" standalone="no"?>
<!-- Generator: Adobe Illustrator 16.0.0, SVG Export Plug-In . SVG Version: 6.00 Build 0)  -->

<svg
   xmlns:dc="http://purl.org/dc/elements/1.1/"
   xmlns:cc="http://creativecommons.org/ns#"
   xmlns:rdf="http://www.w3.org/1999/02/22-rdf-syntax-ns#"
   xmlns:svg="http://www.w3.org/2000/svg"
   xmlns="http://www.w3.org/2000/svg"
   xmlns:sodipodi="http://sodipodi.sourceforge.net/DTD/sodipodi-0.dtd"
   xmlns:inkscape="http://www.inkscape.org/namespaces/inkscape"
   version="1.1"
   id="Layer_1"
   x="0px"
   y="0px"
   width="48px"
   height="36px"
   viewBox="0 0 48 36"
   enable-background="new 0 0 48 36"
   xml:space="preserve"
   sodipodi:docname="mail.svg"
   inkscape:version="0.92.2 (5c3e80d, 2017-08-06)"><metadata
     id="metadata948"><rdf:RDF><cc:Work
         rdf:about=""><dc:format>image/svg+xml</dc:format><dc:type
           rdf:resource="http://purl.org/dc/dcmitype/StillImage" /></cc:Work></rdf:RDF></metadata><defs
     id="defs946" /><sodipodi:namedview
     pagecolor="#ffffff"
     bordercolor="#666666"
     borderopacity="1"
     objecttolerance="10"
     gridtolerance="10"
     guidetolerance="10"
     inkscape:pageopacity="0"
     inkscape:pageshadow="2"
     inkscape:window-width="2418"
     inkscape:window-height="1409"
     id="namedview944"
     showgrid="false"
     inkscape:zoom="11.53959"
     inkscape:cx="13.217484"
     inkscape:cy="14.764302"
     inkscape:window-x="133"
     inkscape:window-y="-9"
     inkscape:window-maximized="1"
     inkscape:current-layer="Layer_1" /><g
     id="g941"
     style="fill:#ffffff;fill-opacity:1;stroke:#000000;stroke-opacity:0.00446429;stroke-width:0.37795276;stroke-miterlimit:4;stroke-dasharray:none"><g
       id="g939"
       style="fill:#ffffff;fill-opacity:1;stroke:#000000;stroke-opacity:0.00446429;stroke-width:0.37795276;stroke-miterlimit:4;stroke-dasharray:none"><path
         fill-rule="evenodd"
         clip-rule="evenodd"
         d="M48.062,5.021c0,8.653,0,17.306,0,25.96c-0.05,0.126-0.116,0.248-0.148,0.379    c-0.44,1.725-1.421,3.056-3.002,3.901c-0.598,0.32-1.274,0.498-1.915,0.739c-12.685,0-25.371,0-38.057,0    c-0.103-0.047-0.201-0.113-0.309-0.139c-1.748-0.4-3.1-1.358-3.956-2.915c-0.359-0.653-0.539-1.402-0.799-2.109    c0-8.558,0-17.116,0-25.673c0.054-0.179,0.11-0.358,0.159-0.538c0.623-2.292,2.086-3.774,4.381-4.45    C4.592,0.123,4.765,0.059,4.939,0c12.687,0,25.373,0,38.057,0c0.128,0.05,0.251,0.114,0.382,0.147    c1.716,0.426,3.049,1.377,3.898,2.915C47.614,3.673,47.805,4.365,48.062,5.021z M42.952,32.89    c-4.439-5.056-8.751-9.964-13.107-14.922c-1.312,1.114-2.576,2.174-3.823,3.253c-1.997,1.732-2.11,1.73-4.117-0.013    c-1.245-1.079-2.51-2.137-3.809-3.241C13.731,22.937,9.42,27.847,4.99,32.89C17.701,32.89,30.239,32.89,42.952,32.89z     M42.644,3.08c-12.538,0-24.831,0-37.347,0c6.324,5.401,12.483,10.662,18.674,15.947C30.171,13.732,36.331,8.472,42.644,3.08z     M3,30.599c4.341-4.942,8.563-9.748,12.815-14.59C11.565,12.381,7.354,8.787,3,5.069C3,13.631,3,22.016,3,30.599z M44.936,30.595    c0.284-1.918,0.14-24.856-0.152-25.39c-4.216,3.599-8.422,7.19-12.659,10.807C36.395,20.873,40.614,25.675,44.936,30.595z"
         id="path937"
         style="fill:#ffffff;fill-opacity:1;stroke:#000000;stroke-opacity:0.00446429;stroke-width:0.37795276;stroke-miterlimit:4;stroke-dasharray:none" /></g></g></svg>