<?xml version="1.0" encoding="utf-8"?>
<!-- Generator: Adobe Illustrator 16.0.0, SVG Export Plug-In . SVG Version: 6.00 Build 0)  -->
<!DOCTYPE svg PUBLIC "-//W3C//DTD SVG 1.1//EN" "http://www.w3.org/Graphics/SVG/1.1/DTD/svg11.dtd">
<svg version="1.1" id="Layer_1" xmlns="http://www.w3.org/2000/svg" xmlns:xlink="http://www.w3.org/1999/xlink" x="0px" y="0px"
	 width="80px" height="78px" viewBox="0 0 80 78" enable-background="new 0 0 80 78" xml:space="preserve">
<path fill="#32131D" d="M51.488,30.192c-1.506-6.483-7.982-10.516-14.465-9.012c-6.482,1.508-10.517,7.984-9.011,14.466
	c1.507,6.483,7.984,10.518,14.466,9.014C48.961,43.15,52.997,36.674,51.488,30.192z M42.328,44.188
	c-6.223,1.445-12.441-2.427-13.886-8.652c-1.446-6.223,2.427-12.439,8.649-13.886c6.222-1.444,12.44,2.428,13.887,8.651
	C52.425,36.523,48.552,42.741,42.328,44.188z"/>
<g>
	<g>
		<polygon fill="#32131D" points="41.776,31.555 36.848,34.615 36.792,34.526 41.721,31.468 41.776,31.555 		"/>
		<path fill="#32131D" d="M42.041,27.1L42.041,27.1l-0.063,0.082c-0.001,0-0.631-0.488-1.559-1.055l0,0
			c-0.927-0.567-2.122-1.085-3.303-1.392l-0.029-0.126l0.049,0.001C39.577,25.137,42.038,27.099,42.041,27.1L42.041,27.1z"/>
		<path fill="#32131D" d="M33.417,26.822c-0.425,1.583-0.497,3.043-0.461,4.109l0,0c0.034,1.066,0.175,1.729,0.177,1.731l0,0
			l-0.102,0.021c0-0.004-0.573-2.698,0.289-5.89l0,0L33.417,26.822L33.417,26.822z"/>
		<path fill="#32131D" d="M45.899,33.944c0.545,2.351-0.128,5.057-0.128,5.06l0,0l0,0l-0.101-0.023c0-0.003,0.165-0.674,0.268-1.638
			l0,0c0.098-0.964,0.129-2.22-0.14-3.376l0,0c-0.039-0.165-0.083-0.329-0.137-0.49l0,0l0.1-0.03
			C45.814,33.611,45.86,33.776,45.899,33.944L45.899,33.944z"/>
		<path fill="#32131D" d="M39.907,40.726c1.007,0.427,1.806,0.635,1.814,0.64l0,0l-0.024,0.099c-0.004,0-3.235-0.843-4.934-2.596
			l0,0l0.075-0.072C37.669,39.657,38.891,40.301,39.907,40.726L39.907,40.726z"/>
		<path fill="#32131D" d="M46.024,23.738c0.363,1.564-0.149,3.009-0.15,3.014l0,0l0,0l-0.098-0.035c0-0.001,0.125-0.354,0.206-0.903
			l0,0c0.082-0.548,0.118-1.288-0.06-2.053l0,0c-0.029-0.123-0.063-0.248-0.104-0.372l0,0l0.099-0.033
			C45.96,23.485,45.994,23.612,46.024,23.738L46.024,23.738z"/>
		<path fill="#32131D" d="M30.228,35.194c0.483,0.204,0.802,0.247,0.802,0.247l0,0l0,0l-0.013,0.104
			c-0.006-0.001-1.335-0.177-2.608-1.491l0,0l0.076-0.073C29.108,34.627,29.747,34.992,30.228,35.194L30.228,35.194z"/>
		<path fill="#32131D" d="M33.099,39.274c0,0.001-0.121,1.144,0.218,2.604l0,0c0.038,0.163,0.081,0.328,0.131,0.496l0,0l-0.05,0.015
			c-0.049-0.168-0.093-0.337-0.131-0.5l0,0c-0.342-1.467-0.218-2.618-0.218-2.619l0,0L33.099,39.274L33.099,39.274z"/>
		<path fill="#32131D" d="M50.952,32.006l-0.074,0.07c-0.234-0.249-0.896-0.599-1.493-0.88l0,0c-0.599-0.28-1.134-0.496-1.134-0.496
			H48.25l0.039-0.097C48.293,30.608,50.436,31.463,50.952,32.006L50.952,32.006z"/>
		<path fill="#32131D" d="M51.101,35.258c-1.066,3.445-3.262,4.782-3.266,4.785l0,0l0,0l-0.026-0.044
			c0-0.001,0.543-0.33,1.223-1.092l0,0c0.677-0.76,1.487-1.95,2.019-3.665l0,0L51.101,35.258L51.101,35.258z"/>
		<path fill="#32131D" d="M41.619,43.546c0,0-2.695,0.838-5.438,0.411c0,0,3.138,0.601,5.47-0.276L41.619,43.546z"/>
		<path fill="#32131D" d="M31.432,26.105c0,0-0.929,0.279-1.771,1.387c0,0,0.461-0.861,1.766-1.598L31.432,26.105z"/>
		<path fill="#32131D" d="M37.246,22.742c0,0,0.977-0.678,2.896-1.23c0,0-1.885,0.358-2.997,1.069L37.246,22.742z"/>
	</g>
</g>
<path fill="#32131D" d="M48.199,39.818c-0.831,1.871-2.999,3.369-2.999,3.369c-2.112,0.783-3.777,0.582-3.777,0.582l0.065-2.463
	c1.907-0.654,4.334-2.565,4.334-2.565L48.199,39.818z"/>
<path fill="#32131D" d="M45.893,34.006c0,0-3.385-2.052-4.335-2.326c0,0,0.269-3.573,0.153-4.683c0,0,2.362-0.974,4.283-0.64
	c0,0,1.731,1.653,2.549,4.407C48.543,30.765,47.113,33.156,45.893,34.006z"/>
<path fill="#32131D" d="M37.475,24.79c0,0-2.897,0.958-4.242,2.654c0,0-1.058-0.889-2.074-1.292c0,0,1.253-2.456,2.562-3.138
	c0,0,1.695-0.83,3.978-0.616C37.699,22.398,37.396,23.39,37.475,24.79z"/>
<path fill="#32131D" d="M36.92,38.949c0,0-0.059-3.152,0.043-4.457c0,0-2.708-1.359-3.968-2.144c0,0-2.089,2.033-2.177,3.099
	c0,0,0.446,2.356,2.224,4.064C33.042,39.512,34.855,40.067,36.92,38.949z"/>
<path fill="#32131D" d="M50.987,35.796c0.495-1.749,0.524-3.629,0.051-5.479c-0.004-0.019-0.008-0.038-0.013-0.056
	c-0.036,0.533-0.122,1.282-0.33,1.672C50.695,31.933,51.215,34.176,50.987,35.796z"/>
<path fill="#32131D" d="M45.944,23.852c0,0,0.756,0.109,1.556,0.465c-1.771-1.591-4.014-2.623-6.42-2.904
	C42.359,21.704,44.628,22.397,45.944,23.852z"/>
<path fill="#32131D" d="M28.27,31.12c-0.217,1.365-0.194,2.793,0.109,4.225c0.01-0.437,0.072-0.872,0.241-1.191
	C28.62,34.154,28.321,32.745,28.27,31.12z"/>
<path fill="#32131D" d="M33.349,42.134c-0.839-0.116-1.851-1.033-2.545-1.773c1.506,1.808,3.532,3.121,5.792,3.758
	C34.994,43.458,33.349,42.134,33.349,42.134z"/>
<g>
	<g>
		<path fill="#32131D" d="M44.26,8.094h-1.382V7.67c0-0.198-0.019-0.324-0.053-0.378C42.789,7.238,42.73,7.21,42.648,7.21
			c-0.091,0-0.158,0.037-0.204,0.11s-0.069,0.184-0.069,0.333c0,0.191,0.026,0.335,0.078,0.432c0.049,0.097,0.189,0.213,0.421,0.35
			c0.662,0.394,1.079,0.716,1.251,0.968c0.173,0.253,0.259,0.659,0.259,1.22c0,0.408-0.048,0.708-0.144,0.902
			c-0.095,0.193-0.28,0.355-0.553,0.486c-0.273,0.131-0.593,0.196-0.954,0.196c-0.399,0-0.739-0.075-1.021-0.226
			s-0.467-0.343-0.553-0.577c-0.088-0.233-0.133-0.564-0.133-0.993v-0.375h1.384v0.697c0,0.214,0.019,0.352,0.058,0.413
			c0.039,0.062,0.107,0.092,0.207,0.092c0.099,0,0.172-0.039,0.221-0.117s0.073-0.193,0.073-0.347c0-0.337-0.046-0.557-0.138-0.661
			c-0.095-0.104-0.327-0.277-0.696-0.52C41.765,9.348,41.521,9.17,41.4,9.06c-0.121-0.111-0.221-0.264-0.299-0.46
			c-0.08-0.196-0.119-0.446-0.119-0.75c0-0.438,0.055-0.759,0.168-0.962c0.111-0.203,0.293-0.361,0.543-0.476
			c0.25-0.114,0.551-0.171,0.904-0.171c0.387,0,0.716,0.063,0.989,0.188c0.271,0.125,0.452,0.282,0.54,0.472
			c0.089,0.189,0.133,0.512,0.133,0.967V8.094z"/>
		<path fill="#32131D" d="M47.341,6.362v1.146l-1.109,3.433h1.109v1.146h-2.744v-0.831l1.145-3.748H44.73V6.362H47.341z"/>
		<path fill="#32131D" d="M51.272,6.362l-0.854,2.584l0.936,3.14h-1.538l-0.603-2.454v2.454h-1.49V6.362h1.49v2.224l0.662-2.224
			H51.272z"/>
		<path fill="#32131D" d="M54.882,9.714c0,0.575-0.013,0.982-0.04,1.222s-0.112,0.458-0.256,0.656
			c-0.143,0.198-0.335,0.35-0.578,0.456c-0.242,0.106-0.525,0.159-0.849,0.159c-0.306,0-0.58-0.05-0.825-0.15
			c-0.244-0.1-0.44-0.25-0.589-0.451c-0.147-0.201-0.236-0.418-0.266-0.654c-0.027-0.235-0.042-0.648-0.042-1.237V8.734
			c0-0.575,0.014-0.982,0.041-1.221c0.027-0.239,0.111-0.458,0.254-0.656c0.144-0.198,0.336-0.35,0.579-0.456
			c0.243-0.106,0.525-0.159,0.848-0.159c0.308,0,0.582,0.05,0.826,0.15s0.439,0.25,0.589,0.451c0.148,0.2,0.237,0.418,0.265,0.654
			c0.028,0.236,0.043,0.648,0.043,1.238V9.714z M54.361,5.224l-1.162,0.958h-0.718l0.622-0.958H54.361z M53.394,7.833
			c0-0.267-0.015-0.437-0.045-0.511C53.32,7.248,53.258,7.21,53.166,7.21c-0.077,0-0.136,0.03-0.178,0.09s-0.062,0.237-0.062,0.532
			v2.673c0,0.333,0.013,0.538,0.04,0.615s0.09,0.117,0.189,0.117c0.102,0,0.167-0.045,0.194-0.135
			c0.028-0.089,0.043-0.303,0.043-0.64V7.833z"/>
		<path fill="#32131D" d="M56.968,8.513l0.862-0.195v0.608l-0.862,0.195v1.82h0.905v1.146h-2.394V9.458l-0.29,0.065V8.915
			l0.29-0.066V6.362h1.488V8.513z"/>
		<path fill="#32131D" d="M61.761,6.362l-0.855,2.584l0.936,3.14h-1.537L59.7,9.632v2.454h-1.488V6.362H59.7v2.224l0.662-2.224
			H61.761z"/>
		<path fill="#32131D" d="M64.815,6.362l0.852,5.724h-1.521l-0.079-1.029h-0.533l-0.089,1.029h-1.54l0.76-5.724H64.815z
			 M64.026,10.042c-0.075-0.648-0.151-1.45-0.226-2.404c-0.152,1.096-0.247,1.897-0.286,2.404H64.026z"/>
	</g>
</g>
<g>
	<g>
		<path fill="#32131D" d="M58.953,31.787c1.01,0.354,1.705,0.79,2.085,1.312c0.381,0.521,0.571,1.24,0.571,2.155
			c0,1.395-0.351,2.435-1.052,3.119c-0.699,0.684-1.782,1.025-3.249,1.025h-4.046c-0.165,0-0.249-0.084-0.249-0.255v-0.497
			c0-0.138,0.075-0.24,0.225-0.306c0.313-0.149,0.471-0.368,0.471-0.654V27.7c0-0.138-0.022-0.231-0.065-0.282
			c-0.045-0.049-0.177-0.126-0.398-0.231c-0.11-0.05-0.175-0.105-0.193-0.166c-0.021-0.06-0.029-0.209-0.029-0.447
			c0-0.209,0.029-0.351,0.086-0.422c0.06-0.071,0.16-0.107,0.302-0.107h4.534c1.093,0,1.93,0.278,2.515,0.835
			s0.878,1.266,0.878,2.126c0,0.717-0.231,1.318-0.691,1.803C60.185,31.297,59.621,31.622,58.953,31.787z M56.787,26.98v4.344h0.438
			c0.276,0,0.493-0.081,0.649-0.24c0.157-0.159,0.249-0.427,0.273-0.799s0.037-0.842,0.037-1.41c0-0.794-0.076-1.309-0.227-1.543
			c-0.152-0.234-0.396-0.352-0.733-0.352H56.787z M56.787,32.267v6.181c0.507,0,0.848-0.069,1.021-0.207
			c0.174-0.138,0.275-0.411,0.306-0.819c0.03-0.408,0.046-1.098,0.046-2.069c0-0.198-0.009-0.649-0.025-1.352
			c-0.017-0.704-0.049-1.126-0.1-1.27c-0.049-0.144-0.137-0.257-0.26-0.339c-0.125-0.083-0.308-0.125-0.551-0.125H56.787z"/>
	</g>
</g>
<g>
	<g>
		<g>
			<path fill="#32131D" d="M24.96,13.993v1.457c0.042,0.002,0.079,0.003,0.109,0.003c0.137,0,0.231-0.034,0.285-0.101
				c0.053-0.067,0.08-0.207,0.08-0.418v-0.47c0-0.196-0.031-0.323-0.092-0.382C25.28,14.022,25.152,13.993,24.96,13.993z"/>
			<path fill="#32131D" d="M79.439,0.45H40.313v0H1.188c0,0-1.621,32.669,39.125,77.895C81.059,33.12,79.439,0.45,79.439,0.45z
				 M36.574,6.362h2.152l0.851,5.724h-1.521l-0.079-1.029h-0.533l-0.089,1.029h-1.539L36.574,6.362z M39.74,18.738h-1.521
				l-0.079-1.029h-0.533l-0.089,1.029h-1.539l0.759-5.724h2.152L39.74,18.738z M35.835,18.738h-1.537l-0.604-2.454v2.454h-1.488
				v-5.724h1.488v2.224l0.662-2.224h1.396L34.9,15.598L35.835,18.738z M32.1,8.381c0-0.413,0.014-0.722,0.043-0.928
				c0.029-0.206,0.112-0.405,0.253-0.596c0.14-0.191,0.335-0.341,0.583-0.451s0.534-0.165,0.857-0.165
				c0.438,0,0.8,0.085,1.085,0.254c0.286,0.169,0.473,0.381,0.563,0.634c0.089,0.253,0.134,0.646,0.134,1.181v0.544H34.13V7.86
				c0-0.29-0.016-0.47-0.048-0.542c-0.031-0.072-0.102-0.108-0.211-0.108c-0.122,0-0.2,0.044-0.233,0.131
				c-0.033,0.087-0.05,0.276-0.05,0.566v2.659c0,0.278,0.018,0.46,0.05,0.544c0.033,0.085,0.106,0.127,0.223,0.127
				c0.111,0,0.183-0.042,0.217-0.128c0.034-0.085,0.052-0.284,0.052-0.599V9.792h1.488v0.223c0,0.593-0.042,1.013-0.125,1.261
				c-0.085,0.248-0.269,0.465-0.556,0.651c-0.286,0.187-0.639,0.28-1.059,0.28c-0.436,0-0.796-0.079-1.078-0.237
				c-0.283-0.158-0.471-0.376-0.563-0.656c-0.092-0.28-0.138-0.7-0.138-1.261V8.381z M29.103,15.566l0.29-0.066v-2.487h1.328
				c-0.101-0.096-0.158-0.211-0.158-0.354c0-0.196,0.099-0.387,0.297-0.573h-1.723V6.358h2.483v1.146h-0.99v1.093h0.926v1.085H30.63
				v1.259h1.085v1.146h-0.332c-0.203,0.2-0.305,0.359-0.305,0.477c0,0.151,0.085,0.227,0.255,0.227c0.116,0,0.25-0.032,0.404-0.096
				l0.145,0.354c-0.227,0.106-0.431,0.159-0.615,0.159c-0.154,0-0.276-0.036-0.385-0.087v2.043l0.864-0.195v0.608l-0.864,0.195v1.82
				h0.906v1.146h-2.394v-2.629l-0.29,0.065V15.566z M27.052,6.362h1.488v5.724h-1.488V6.362z M28.673,13.014v5.724h-1.488v-5.724
				H28.673z M23,8.381c0-0.413,0.014-0.722,0.042-0.928c0.028-0.206,0.112-0.405,0.252-0.596c0.141-0.191,0.335-0.341,0.583-0.451
				s0.535-0.165,0.858-0.165c0.438,0,0.8,0.085,1.085,0.254c0.286,0.169,0.473,0.381,0.563,0.634s0.135,0.646,0.135,1.181v0.544
				h-1.489V7.86c0-0.29-0.016-0.47-0.047-0.542c-0.032-0.072-0.102-0.108-0.21-0.108c-0.124,0-0.201,0.044-0.234,0.131
				c-0.033,0.087-0.049,0.276-0.049,0.566v2.659c0,0.278,0.016,0.46,0.049,0.544c0.033,0.085,0.108,0.127,0.223,0.127
				c0.11,0,0.184-0.042,0.218-0.128c0.034-0.085,0.05-0.284,0.05-0.599V9.792h1.489v0.223c0,0.593-0.042,1.013-0.126,1.261
				c-0.083,0.248-0.269,0.465-0.555,0.651c-0.287,0.187-0.64,0.28-1.06,0.28c-0.436,0-0.795-0.079-1.078-0.237
				s-0.47-0.376-0.562-0.656c-0.092-0.28-0.138-0.7-0.138-1.261V8.381z M20.033,6.362h2.482v1.146h-0.993v1.085h0.929v1.089h-0.929
				v1.259h1.092v1.146h-2.581V6.362z M17.947,6.362h1.488v5.724h-1.488V6.362z M14.518,10.386c0,0.514-0.024,0.857-0.073,1.031
				c-0.048,0.173-0.132,0.309-0.253,0.407c-0.12,0.098-0.269,0.166-0.445,0.205c-0.177,0.039-0.443,0.058-0.799,0.058H11.07V6.362
				h1.114c0.719,0,1.205,0.033,1.458,0.099c0.254,0.066,0.446,0.175,0.579,0.325c0.132,0.151,0.214,0.319,0.247,0.504
				c0.033,0.185,0.05,0.549,0.05,1.091V10.386z M14.818,11.255l1.145-3.748h-1.012V6.362h2.61v1.146l-1.108,3.433h1.108v1.146
				h-2.743V11.255z M25.796,27.074c-0.041,0.085-0.141,0.167-0.301,0.245c-0.144,0.066-0.235,0.138-0.273,0.214
				c-0.039,0.077-0.059,0.205-0.059,0.381v9.819c0,0.144,0.018,0.249,0.05,0.315c0.033,0.066,0.124,0.135,0.273,0.207
				c0.204,0.099,0.306,0.234,0.306,0.405c0,0.431-0.014,0.669-0.042,0.715c-0.027,0.047-0.125,0.071-0.29,0.071h-3.69
				c-0.159,0-0.24-0.135-0.24-0.405c0-0.231,0.009-0.404,0.025-0.517c0.016-0.112,0.118-0.206,0.307-0.277
				c0.209-0.082,0.314-0.229,0.314-0.438v-6.965l-1.489,5.625h-0.91l-1.464-5.451v6.767c0,0.22,0.099,0.384,0.298,0.489
				c0.242,0.121,0.364,0.336,0.364,0.645c0,0.352-0.122,0.529-0.364,0.529h-1.796c-0.204,0-0.306-0.168-0.306-0.504
				c0-0.237,0.085-0.419,0.257-0.546c0.126-0.105,0.207-0.188,0.24-0.253c0.033-0.063,0.049-0.174,0.049-0.335v-9.555
				c0-0.265-0.023-0.468-0.07-0.609c-0.047-0.14-0.147-0.254-0.302-0.343c-0.166-0.087-0.249-0.178-0.249-0.273l0.008-0.355
				c0.006-0.26,0.023-0.421,0.054-0.484c0.03-0.063,0.103-0.095,0.219-0.095h3.061l1.324,5.112l1.349-5.112h2.929
				c0.198,0,0.328,0.028,0.389,0.086c0.061,0.058,0.091,0.206,0.091,0.442C25.859,26.838,25.838,26.988,25.796,27.074z
				 M26.149,16.298c-0.201,0.089-0.466,0.134-0.79,0.134H24.96v2.305h-1.489v-5.724h1.499c0.405,0,0.717,0.032,0.936,0.095
				c0.218,0.064,0.382,0.156,0.491,0.276c0.11,0.12,0.184,0.266,0.223,0.437c0.039,0.171,0.059,0.436,0.059,0.794v0.499
				c0,0.365-0.038,0.632-0.114,0.799C26.489,16.08,26.351,16.208,26.149,16.298z M38.246,61.264H34.57
				c-0.157,0-0.251-0.025-0.286-0.072c-0.034-0.049-0.052-0.165-0.052-0.354c0-0.268,0.015-0.434,0.045-0.497
				c0.028-0.064,0.139-0.126,0.332-0.186c0.3-0.09,0.45-0.221,0.45-0.394V51.76c-0.481,0.166-0.891,0.248-1.227,0.248
				c-0.167,0-0.25-0.09-0.25-0.272v-0.32c0-0.124,0.024-0.216,0.073-0.277c0.047-0.063,0.168-0.13,0.36-0.204
				c0.257-0.108,0.608-0.325,1.052-0.651s0.878-0.763,1.3-1.309c0.326-0.422,0.519-0.65,0.578-0.686
				c0.059-0.034,0.161-0.053,0.306-0.053h0.666v11.615c0,0.118,0.092,0.223,0.274,0.313c0.155,0.075,0.25,0.153,0.284,0.237
				c0.035,0.082,0.052,0.3,0.052,0.653C38.526,61.194,38.433,61.264,38.246,61.264z M40.354,73.15V46.161
				c-6.268,0.29-12.051-3.908-13.521-10.241c-1.658-7.133,2.782-14.262,9.917-15.921c1.211-0.281,2.421-0.374,3.604-0.32V4.044
				h34.693C75.047,4.044,76.485,33.023,40.354,73.15z"/>
			<path fill="#32131D" d="M12.892,7.393c-0.06-0.034-0.17-0.051-0.333-0.051v3.766c0.215,0,0.347-0.043,0.396-0.129
				c0.05-0.086,0.074-0.32,0.074-0.702V8.052c0-0.259-0.008-0.426-0.024-0.499C12.988,7.48,12.95,7.427,12.892,7.393z"/>
			<path fill="#32131D" d="M37.71,7.638c-0.152,1.096-0.247,1.897-0.286,2.404h0.512C37.861,9.395,37.785,8.593,37.71,7.638z"/>
			<path fill="#32131D" d="M37.588,16.694h0.513c-0.076-0.648-0.151-1.45-0.227-2.404C37.722,15.386,37.627,16.188,37.588,16.694z"
				/>
		</g>
		<path fill="#32131D" d="M44.814,48.253c0.686,0,1.317,0.277,1.896,0.834c0.577,0.557,1.012,1.312,1.3,2.268
			c0.289,0.955,0.435,2.089,0.435,3.399c0,2.184-0.364,3.837-1.088,4.961c-0.726,1.123-1.607,1.685-2.646,1.685
			c-0.985,0-1.833-0.534-2.544-1.604c-0.712-1.07-1.067-2.708-1.067-4.912c0-2.195,0.351-3.849,1.055-4.961
			C42.858,48.809,43.744,48.253,44.814,48.253z M45.32,50.307c0-0.381-0.043-0.644-0.132-0.79c-0.088-0.147-0.234-0.221-0.437-0.221
			c-0.396,0-0.595,0.337-0.595,1.011v9.296c0,0.524,0.188,0.786,0.562,0.786c0.183,0,0.327-0.078,0.438-0.233
			c0.108-0.155,0.163-0.339,0.163-0.553V50.307z"/>
	</g>
</g>
<g>
	<g>
		<path fill="#32131D" d="M40.857,13.014h1.053c0.702,0,1.178,0.027,1.427,0.081c0.248,0.054,0.45,0.193,0.607,0.416
			c0.156,0.223,0.235,0.578,0.235,1.066c0,0.445-0.056,0.744-0.167,0.898c-0.11,0.153-0.328,0.245-0.653,0.275
			c0.295,0.073,0.493,0.171,0.594,0.293c0.102,0.123,0.165,0.235,0.189,0.338s0.037,0.385,0.037,0.847v1.51h-1.382v-1.902
			c0-0.306-0.024-0.496-0.073-0.569c-0.048-0.073-0.176-0.11-0.38-0.11v2.581h-1.487V13.014z M42.345,13.993v1.273
			c0.167,0,0.285-0.023,0.353-0.069c0.066-0.046,0.101-0.195,0.101-0.447v-0.314c0-0.182-0.033-0.301-0.098-0.357
			C42.636,14.021,42.516,13.993,42.345,13.993z"/>
		<path fill="#32131D" d="M47.99,14.746h-1.384v-0.424c0-0.198-0.018-0.324-0.052-0.378c-0.036-0.054-0.095-0.081-0.178-0.081
			c-0.09,0-0.157,0.037-0.203,0.11c-0.046,0.073-0.069,0.184-0.069,0.333c0,0.19,0.026,0.334,0.078,0.431
			c0.049,0.097,0.189,0.213,0.421,0.35c0.662,0.394,1.079,0.716,1.251,0.968c0.173,0.252,0.259,0.659,0.259,1.22
			c0,0.407-0.047,0.708-0.144,0.901c-0.095,0.193-0.28,0.355-0.553,0.486c-0.273,0.131-0.592,0.197-0.954,0.197
			c-0.399,0-0.738-0.076-1.021-0.227c-0.283-0.151-0.467-0.343-0.555-0.577c-0.086-0.233-0.13-0.564-0.13-0.993v-0.375h1.383v0.697
			c0,0.214,0.019,0.353,0.058,0.414s0.107,0.092,0.207,0.092c0.099,0,0.172-0.039,0.222-0.116c0.049-0.078,0.071-0.193,0.071-0.347
			c0-0.337-0.046-0.558-0.138-0.661c-0.094-0.104-0.326-0.277-0.695-0.52c-0.371-0.245-0.616-0.423-0.735-0.534
			c-0.121-0.111-0.221-0.264-0.299-0.46c-0.079-0.195-0.12-0.445-0.12-0.75c0-0.438,0.057-0.759,0.169-0.962
			c0.111-0.202,0.293-0.361,0.543-0.475s0.552-0.171,0.905-0.171c0.386,0,0.715,0.063,0.988,0.188
			c0.271,0.125,0.452,0.282,0.54,0.472c0.089,0.19,0.134,0.512,0.134,0.967V14.746z"/>
		<path fill="#32131D" d="M52.208,13.014l-0.854,2.584l0.936,3.14h-1.539l-0.602-2.454v2.454h-1.49v-5.724h1.49v2.224l0.662-2.224
			H52.208z"/>
		<path fill="#32131D" d="M55.343,13.014l0.853,5.724h-1.521l-0.079-1.029h-0.533l-0.089,1.029h-1.54l0.76-5.724H55.343z
			 M54.554,16.694c-0.074-0.648-0.15-1.45-0.226-2.404c-0.151,1.096-0.247,1.897-0.285,2.404H54.554z"/>
	</g>
</g>
</svg>
