<?xml version="1.0" encoding="utf-8"?>
<!-- Generator: Adobe Illustrator 16.0.0, SVG Export Plug-In . SVG Version: 6.00 Build 0)  -->
<!DOCTYPE svg PUBLIC "-//W3C//DTD SVG 1.1//EN" "http://www.w3.org/Graphics/SVG/1.1/DTD/svg11.dtd">
<svg version="1.1" id="Layer_1" xmlns="http://www.w3.org/2000/svg" xmlns:xlink="http://www.w3.org/1999/xlink" x="0px" y="0px"
	 width="28px" height="28px" viewBox="0 0 28 28" enable-background="new 0 0 28 28" xml:space="preserve">
<g>
	<g>
		<path fill="#E2BF2F" d="M26.828,9.192l-8.802-4.205c-0.101-0.046-0.223-0.005-0.273,0.094L15.84,9.093h1.043l1.406-2.946
			l7.63,3.648l-2.387,4.993l-1.345-0.642v2.639l0.825,0.396c0.106,0.049,0.229,0.004,0.279-0.096l3.637-7.621
			C26.979,9.365,26.935,9.243,26.828,9.192L26.828,9.192z M26.828,9.192"/>
		<path fill="#E2BF2F" d="M3.128,9.143l8.802-4.202c0.1-0.05,0.223-0.004,0.274,0.096l1.917,4.005h-1.042l-1.412-2.946l-7.63,3.648
			l2.388,4.993l1.343-0.642v2.644l-0.825,0.391c-0.1,0.055-0.223,0.006-0.274-0.096l-3.635-7.62
			C2.982,9.315,3.028,9.192,3.128,9.143L3.128,9.143z M3.128,9.143"/>
	</g>
	<path fill="#E2BF2F" d="M21.356,9.784H8.968c-0.146,0-0.263,0.111-0.263,0.257v10.721c0,0.145,0.117,0.262,0.263,0.262h12.389
		c0.146,0,0.263-0.117,0.263-0.262V10.041C21.619,9.895,21.502,9.784,21.356,9.784L21.356,9.784z M20.643,18h-0.786
		c-0.458-1.17-1.021-2.816-1.875-2.594c-1.004,0.252-1.5,2.594-1.5,2.594s-0.514-2.643-1.925-4.054
		C13.141,12.535,11.774,18,11.774,18H9.899v-7.034h10.743V18z M20.643,18"/>
	<path fill="#E2BF2F" d="M12.509,12.473c0,0.485-0.39,0.881-0.875,0.881c-0.485,0-0.876-0.396-0.876-0.881
		c0-0.48,0.391-0.876,0.876-0.876C12.119,11.597,12.509,11.993,12.509,12.473L12.509,12.473z M12.509,12.473"/>
	<path fill="#E2BF2F" d="M17.514,13.09c0.2,0,0.379-0.015,0.546-0.049c0.19,0.078,0.425,0.129,0.676,0.129
		c0.646,0,1.171-0.314,1.171-0.703c0-0.391-0.524-0.709-1.171-0.709c-0.24,0-0.469,0.05-0.653,0.124
		c-0.078-0.073-0.179-0.124-0.295-0.124h-0.168c-0.218,0-0.391,0.167-0.412,0.379c-0.524,0.057-0.915,0.239-0.915,0.47
		C16.292,12.875,16.839,13.09,17.514,13.09L17.514,13.09z M17.514,13.09"/>
</g>
</svg>
