<?xml version="1.0" encoding="utf-8"?>
<!-- Generator: Adobe Illustrator 16.0.0, SVG Export Plug-In . SVG Version: 6.00 Build 0)  -->
<!DOCTYPE svg PUBLIC "-//W3C//DTD SVG 1.1//EN" "http://www.w3.org/Graphics/SVG/1.1/DTD/svg11.dtd">
<svg version="1.1" id="Layer_1" xmlns="http://www.w3.org/2000/svg" xmlns:xlink="http://www.w3.org/1999/xlink" x="0px" y="0px"
	 width="93px" height="20px" viewBox="0 0 93 20" enable-background="new 0 0 93 20" xml:space="preserve">
<g>
	<g>
		<g>
			<g>
				<path fill="#FFFFFF" d="M25.374,14.25c0,1.78,1.647,2.575,3.162,2.575c1.573,0,3.177-0.647,3.177-2.413
					c0-0.939-0.456-1.867-1.985-2.455c-1.839-0.705-4.103-1.073-4.103-2.969c0-1.544,1.47-2.339,2.911-2.339
					c1.411,0,2.809,0.764,2.809,2.339h-0.53c0-1.236-1.161-1.854-2.338-1.854c-1.161,0-2.323,0.619-2.323,1.854
					c0,1.47,1.926,1.821,3.72,2.499c1.854,0.706,2.368,1.751,2.368,2.91c0,2.016-1.662,2.957-3.706,2.957
					c-1.574,0-3.691-0.824-3.691-3.104H25.374z"/>
				<path fill="#FFFFFF" d="M28.536,17.459c-1.828,0-3.796-1.004-3.796-3.209v-0.104h0.739v0.104c0,1.697,1.584,2.47,3.057,2.47
					c1.486,0,3.072-0.606,3.072-2.308c0-1.089-0.626-1.86-1.918-2.356c-0.318-0.123-0.655-0.236-0.981-0.348
					c-1.567-0.531-3.189-1.078-3.189-2.72c0-1.604,1.517-2.444,3.016-2.444c1.403,0,2.914,0.764,2.914,2.444v0.104h-0.74V8.988
					c0-1.201-1.157-1.75-2.233-1.75c-1.067,0-2.217,0.549-2.217,1.75c0,1.142,1.261,1.571,2.72,2.072
					c0.308,0.105,0.621,0.212,0.932,0.328c1.662,0.633,2.436,1.59,2.436,3.009C32.347,16.286,30.886,17.459,28.536,17.459z
					 M24.951,14.355c0.061,1.987,1.887,2.895,3.584,2.895c1.742,0,3.601-0.751,3.601-2.854c0-1.321-0.73-2.215-2.301-2.813
					c-0.305-0.115-0.619-0.223-0.923-0.328c-1.472-0.502-2.863-0.977-2.863-2.268c0-1.346,1.258-1.96,2.427-1.96
					c1.145,0,2.376,0.582,2.441,1.854h0.32c-0.063-1.461-1.43-2.129-2.702-2.129c-1.394,0-2.807,0.767-2.807,2.235
					c0,1.491,1.479,1.992,3.047,2.522c0.328,0.11,0.667,0.227,0.99,0.35c1.361,0.524,2.051,1.383,2.051,2.553
					c0,1.856-1.694,2.516-3.281,2.516c-1.544,0-3.201-0.804-3.264-2.572H24.951z"/>
			</g>
			<g>
				<path fill="#FFFFFF" d="M28.536,17.554c-1.874,0-3.891-1.033-3.891-3.304v-0.198h0.929v0.198c0,1.633,1.536,2.374,2.962,2.374
					c0.698,0,2.977-0.158,2.977-2.212c0-1.045-0.609-1.79-1.857-2.27c-0.314-0.119-0.651-0.234-0.975-0.344
					c-1.601-0.543-3.255-1.103-3.255-2.811c0-1.667,1.565-2.538,3.11-2.538c1.449,0,3.008,0.793,3.008,2.538v0.198h-0.928V8.988
					c0-1.136-1.108-1.654-2.14-1.654c-1.022,0-2.125,0.518-2.125,1.654c0,1.074,1.233,1.496,2.66,1.982
					c0.307,0.105,0.623,0.212,0.932,0.329c1.704,0.649,2.496,1.635,2.496,3.098C32.439,16.344,30.943,17.554,28.536,17.554z
					 M25.05,14.451c0.127,2.132,2.313,2.703,3.485,2.703c2.194,0,3.506-1.03,3.506-2.758c0-1.293-0.69-2.133-2.239-2.723
					c-0.305-0.115-0.618-0.224-0.92-0.327c-1.508-0.512-2.93-0.999-2.93-2.359c0-1.41,1.31-2.054,2.523-2.054
					c1.163,0,2.411,0.583,2.529,1.853h0.129c-0.116-1.331-1.401-1.938-2.6-1.938c-1.348,0-2.712,0.733-2.712,2.139
					c0,1.423,1.449,1.913,2.984,2.434c0.328,0.11,0.668,0.225,0.992,0.349c1.402,0.539,2.112,1.429,2.112,2.642
					c0,1.925-1.743,2.612-3.376,2.612c-1.56,0-3.237-0.809-3.355-2.573H25.05z"/>
				<path fill="#FFFFFF" d="M28.536,17.659c-1.924,0-3.996-1.067-3.996-3.409v-0.303h1.139v0.303c0,1.56,1.48,2.271,2.857,2.271
					c0.674,0,2.872-0.152,2.872-2.108c0-0.998-0.585-1.708-1.79-2.172c-0.302-0.114-0.625-0.224-0.938-0.33l-0.034-0.013
					c-1.635-0.554-3.327-1.126-3.327-2.91c0-1.736,1.618-2.645,3.216-2.645c1.5,0,3.112,0.829,3.112,2.645v0.303h-1.136V8.988
					c0-1.064-1.055-1.551-2.035-1.551c-0.972,0-2.02,0.487-2.02,1.551c0,1,1.2,1.409,2.587,1.882l0.063,0.021
					c0.288,0.1,0.583,0.199,0.873,0.311c1.75,0.667,2.564,1.681,2.564,3.194C32.545,16.408,31.009,17.659,28.536,17.659z
					 M24.75,14.157v0.093c0,2.197,1.963,3.199,3.786,3.199c2.344,0,3.801-1.171,3.801-3.053c0-1.415-0.772-2.368-2.43-2.998
					c-0.289-0.11-0.58-0.212-0.866-0.309l-0.063-0.021c-1.464-0.5-2.73-0.931-2.73-2.081c0-1.209,1.157-1.759,2.229-1.759
					c1.081,0,2.244,0.55,2.244,1.759v0.094h0.719V8.988c0-1.672-1.505-2.434-2.904-2.434c-1.494,0-3.005,0.835-3.005,2.434
					c0,1.634,1.617,2.182,3.184,2.712l0.034,0.01c0.314,0.107,0.638,0.218,0.944,0.334c1.295,0.499,1.926,1.273,1.926,2.368
					c0,2.15-2.36,2.317-3.083,2.317c-1.477,0-3.067-0.776-3.067-2.479v-0.093H24.75z M28.536,17.258
					c-1.184,0-3.456-0.586-3.59-2.801l-0.005-0.11h0.339l0.005,0.097c0.114,1.701,1.767,2.476,3.251,2.476
					c1.582,0,3.271-0.658,3.271-2.507c0-1.166-0.689-2.022-2.046-2.543c-0.303-0.117-0.625-0.227-0.935-0.332l-0.051-0.018
					c-1.574-0.534-3.055-1.036-3.055-2.532c0-1.473,1.417-2.244,2.816-2.244c1.216,0,2.583,0.637,2.706,2.034l0.009,0.113h-0.34
					L30.9,8.798c-0.111-1.216-1.297-1.759-2.423-1.759c-1.165,0-2.418,0.609-2.418,1.948c0,1.285,1.388,1.76,2.858,2.261
					c0.309,0.104,0.62,0.212,0.923,0.326c1.595,0.608,2.307,1.478,2.307,2.821C32.147,16.189,30.796,17.258,28.536,17.258z"/>
			</g>
		</g>
		<g>
			<g>
				<path fill="#FFFFFF" d="M34.565,6.854h0.53v10.294h-0.53V6.854z"/>
				<path fill="#FFFFFF" d="M35.2,17.255h-0.738V6.749H35.2V17.255z M34.671,17.044h0.319V6.959h-0.319V17.044z"/>
			</g>
			<g>
				<path fill="#FFFFFF" d="M35.296,17.347h-0.93V6.656h0.93V17.347z M34.765,16.949h0.13V7.054h-0.13V16.949z"/>
				<path fill="#FFFFFF" d="M35.399,17.451h-1.138v-10.9h1.138V17.451z M34.47,17.242h0.721V6.759H34.47V17.242z M34.999,17.054
					H34.66V6.949h0.339V17.054z"/>
			</g>
		</g>
		<g>
			<g>
				<path fill="#FFFFFF" d="M38.035,6.854h0.53v2.56l4.971-2.56l0.235,0.443l-5.736,3.014V6.854z M41.33,11.708l3.103,5.176
					l-0.441,0.265l-2.823-4.707l-2.604,1.265v3.442h-0.53v-3.779L41.33,11.708z"/>
				<path fill="#FFFFFF" d="M43.956,17.293l-2.828-4.714l-2.457,1.193v3.482h-0.741v-3.95l3.439-1.733l0.051,0.083l3.155,5.265
					L43.956,17.293z M38.141,17.044h0.319v-3.402l2.75-1.337l2.819,4.7l0.261-0.157l-2.999-5.001l-3.15,1.587V17.044z
					 M37.931,10.484V6.749h0.741v2.493l4.908-2.528l0.334,0.626L37.931,10.484z M38.141,6.959v3.178l5.488-2.884l-0.136-0.258
					l-5.033,2.59V6.959H38.141z"/>
			</g>
			<g>
				<path fill="#FFFFFF" d="M43.924,17.423l-2.833-4.721l-2.327,1.13v3.515h-0.927v-4.102l3.569-1.8l3.3,5.508L43.924,17.423z
					 M38.236,16.949h0.13v-3.368l2.879-1.397l2.815,4.691l0.099-0.061l-2.904-4.847l-3.019,1.524V16.949z M37.837,10.64V6.656h0.927
					v2.43l4.855-2.499l0.422,0.792L37.837,10.64z M38.236,7.054V9.98L43.5,7.213l-0.047-0.092L38.366,9.74V7.054H38.236z"/>
				<path fill="#FFFFFF" d="M43.887,17.565l-2.835-4.729l-2.182,1.062v3.553h-1.138v-4.27l3.715-1.874l0.05,0.083l3.354,5.597
					L43.887,17.565z M41.132,12.564l2.828,4.713l0.603-0.361l-3.197-5.333l-3.423,1.727v3.933h0.718v-3.475L41.132,12.564z
					 M38.471,17.054h-0.339v-3.626l3.163-1.599l0.049,0.085l2.959,4.937l-0.278,0.168l-0.055-0.091l-2.764-4.608l-2.735,1.327
					V17.054z M37.731,10.813V6.551h1.138v2.362l4.793-2.465l0.52,0.974L37.731,10.813z M37.942,6.759v3.707l5.958-3.132
					l-0.325-0.607l-4.915,2.53V6.759H37.942z M38.132,10.154V6.949h0.339v2.619l5.027-2.587l0.144,0.278L38.132,10.154z"/>
			</g>
		</g>
		<g>
			<g>
				<path fill="#FFFFFF" d="M55.917,12.001c0,2.971-2.264,5.353-5.396,5.353c-3.134,0-5.396-2.382-5.396-5.353
					c0-2.97,2.263-5.353,5.396-5.353C53.653,6.648,55.917,9.031,55.917,12.001z M55.39,12.001c0-2.662-2.029-4.853-4.868-4.853
					c-2.838,0-4.866,2.19-4.866,4.853s2.028,4.852,4.866,4.852C53.36,16.853,55.39,14.663,55.39,12.001z"/>
				<path fill="#FFFFFF" d="M50.521,17.459c-3.138,0-5.501-2.346-5.501-5.458c0-3.111,2.364-5.458,5.501-5.458
					c3.136,0,5.501,2.347,5.501,5.458C56.022,15.113,53.657,17.459,50.521,17.459z M50.521,6.753c-3.017,0-5.293,2.258-5.293,5.248
					c0,2.991,2.276,5.249,5.293,5.249s5.293-2.258,5.293-5.249C55.814,9.011,53.538,6.753,50.521,6.753z M50.521,16.958
					c-2.835,0-4.973-2.131-4.973-4.957c0-2.825,2.138-4.958,4.973-4.958s4.973,2.132,4.973,4.958
					C55.494,14.827,53.356,16.958,50.521,16.958z M50.521,7.253c-2.715,0-4.762,2.042-4.762,4.748c0,2.707,2.047,4.747,4.762,4.747
					s4.763-2.04,4.763-4.747C55.284,9.294,53.236,7.253,50.521,7.253z"/>
			</g>
			<g>
				<path fill="#FFFFFF" d="M50.521,17.554c-3.19,0-5.595-2.388-5.595-5.553s2.405-5.551,5.595-5.551
					c3.189,0,5.597,2.386,5.597,5.551S53.711,17.554,50.521,17.554z M50.521,6.849c-2.964,0-5.198,2.214-5.198,5.152
					c0,2.938,2.234,5.153,5.198,5.153c2.962,0,5.197-2.215,5.197-5.153C55.719,9.063,53.483,6.849,50.521,6.849z M50.521,17.054
					c-2.84,0-5.067-2.219-5.067-5.053c0-2.833,2.228-5.051,5.067-5.051c2.841,0,5.065,2.218,5.065,5.051
					C55.587,14.835,53.362,17.054,50.521,17.054z M50.521,7.348c-2.661,0-4.667,2-4.667,4.653s2.006,4.654,4.667,4.654
					s4.667-2.001,4.667-4.654S53.183,7.348,50.521,7.348z"/>
				<path fill="#FFFFFF" d="M50.521,17.659c-3.249,0-5.7-2.433-5.7-5.658c0-3.223,2.451-5.658,5.7-5.658s5.702,2.435,5.702,5.658
					C56.224,15.227,53.771,17.659,50.521,17.659z M50.521,6.554c-3.131,0-5.492,2.341-5.492,5.447c0,3.106,2.361,5.448,5.492,5.448
					c3.13,0,5.49-2.342,5.49-5.448C56.012,8.895,53.651,6.554,50.521,6.554z M50.521,17.258c-3.023,0-5.301-2.261-5.301-5.257
					c0-2.997,2.277-5.257,5.301-5.257c3.021,0,5.301,2.26,5.301,5.257C55.822,14.997,53.543,17.258,50.521,17.258z M50.521,7.055
					c-2.783,0-4.962,2.171-4.962,4.946c0,2.775,2.179,4.948,4.962,4.948c2.781,0,4.962-2.173,4.962-4.948
					C55.483,9.226,53.303,7.055,50.521,7.055z M50.521,16.759c-2.722,0-4.773-2.044-4.773-4.758c0-2.712,2.051-4.758,4.773-4.758
					c2.719,0,4.772,2.046,4.772,4.758C55.294,14.715,53.24,16.759,50.521,16.759z M50.521,7.453c-2.603,0-4.563,1.956-4.563,4.548
					c0,2.594,1.961,4.551,4.563,4.551c2.602,0,4.562-1.957,4.562-4.551C55.083,9.409,53.123,7.453,50.521,7.453z"/>
			</g>
		</g>
		<g>
			<g>
				<path fill="#FFFFFF" d="M63.008,6.854c1.042,0,1.896,0.854,1.896,1.898c0,1.015-0.854,1.883-1.896,1.883h-4.589V6.854H63.008z
					 M65.45,16.884l-0.457,0.265l-1.78-3.25h-4.265v3.25h-0.529v-3.779h5.118L65.45,16.884z M58.948,7.384v2.719h4.06
					c0.75,0,1.366-0.616,1.366-1.352c0-0.751-0.616-1.368-1.366-1.368H58.948z"/>
				<path fill="#FFFFFF" d="M64.951,17.293l-0.052-0.095l-1.749-3.195h-4.097v3.252h-0.739v-3.99h5.284l1.99,3.658L64.951,17.293z
					 M58.524,17.044h0.319v-3.251h4.43l1.759,3.21l0.275-0.158l-1.833-3.371h-4.95V17.044z M63.008,10.738h-4.693V6.749h4.693
					c1.103,0,2.001,0.897,2.001,2.003C65.009,9.828,64.092,10.738,63.008,10.738z M58.524,10.528h4.483
					c0.97,0,1.79-0.814,1.79-1.776c0-0.988-0.803-1.792-1.79-1.792h-4.483V10.528z M63.008,10.209h-4.164v-2.93h4.164
					c0.812,0,1.471,0.661,1.471,1.473C64.479,9.541,63.805,10.209,63.008,10.209z M59.054,10h3.954c0.684,0,1.262-0.573,1.262-1.248
					c0-0.697-0.567-1.264-1.262-1.264h-3.954V10z"/>
			</g>
			<g>
				<path fill="#FFFFFF" d="M64.916,17.424l-1.821-3.325h-3.948v3.248h-0.926V13.17h5.435l2.062,3.788L64.916,17.424z
					 M58.618,16.949h0.131v-3.25h4.583l1.736,3.173l0.111-0.063l-1.761-3.24h-4.801V16.949z M63.008,10.834h-4.787V6.656h4.787
					c1.154,0,2.096,0.939,2.096,2.096C65.104,9.881,64.144,10.834,63.008,10.834z M58.618,10.434h4.39
					c0.919,0,1.695-0.769,1.695-1.682c0-0.937-0.762-1.698-1.695-1.698h-4.39V10.434z M63.008,10.304h-4.259v-3.12h4.259
					c0.862,0,1.568,0.702,1.568,1.568C64.576,9.607,63.87,10.304,63.008,10.304z M59.146,9.906h3.861
					c0.632,0,1.168-0.529,1.168-1.154c0-0.643-0.524-1.169-1.168-1.169h-3.861V9.906z"/>
				<path fill="#FFFFFF" d="M64.875,17.569l-0.051-0.095l-1.791-3.271h-3.781v3.248h-1.137v-4.387h5.603l2.14,3.935L64.875,17.569z
					 M59.043,13.993h4.115l1.797,3.285l0.621-0.36l-1.982-3.645h-5.27v3.969h0.719V13.993z M58.854,17.054h-0.341v-3.59h4.967
					l1.841,3.384l-0.292,0.17l-1.761-3.214h-4.414V17.054z M63.008,10.938h-4.893V6.551h4.893c1.213,0,2.199,0.986,2.199,2.201
					C65.207,9.937,64.199,10.938,63.008,10.938z M58.324,10.729h4.684c1.078,0,1.991-0.905,1.991-1.977
					c0-1.099-0.895-1.993-1.991-1.993h-4.684V10.729z M63.008,10.539h-4.494v-3.59h4.494c0.993,0,1.802,0.808,1.802,1.803
					C64.81,9.718,63.984,10.539,63.008,10.539z M58.854,10.2h4.153c0.806,0,1.462-0.652,1.462-1.448
					c0-0.808-0.656-1.464-1.462-1.464h-4.153V10.2z M63.008,10.009h-3.965V7.479h3.965c0.701,0,1.271,0.57,1.271,1.273
					C64.279,9.434,63.697,10.009,63.008,10.009z M59.252,9.8h3.756c0.576,0,1.063-0.48,1.063-1.048c0-0.587-0.478-1.064-1.063-1.064
					h-3.756V9.8z"/>
			</g>
		</g>
		<g>
			<g>
				<path fill="#FFFFFF" d="M67.303,14.25c0,1.78,1.647,2.575,3.161,2.575c1.572,0,3.177-0.647,3.177-2.413
					c0-0.939-0.459-1.867-1.986-2.455c-1.838-0.705-4.104-1.073-4.104-2.969c0-1.544,1.471-2.339,2.913-2.339
					c1.411,0,2.808,0.764,2.808,2.339h-0.528c0-1.236-1.162-1.854-2.338-1.854c-1.162,0-2.325,0.619-2.325,1.854
					c0,1.47,1.93,1.821,3.721,2.499c1.853,0.706,2.368,1.751,2.368,2.91c0,2.016-1.661,2.957-3.705,2.957
					c-1.575,0-3.69-0.824-3.69-3.104H67.303z"/>
				<path fill="#FFFFFF" d="M70.464,17.459c-1.828,0-3.796-1.004-3.796-3.209v-0.104h0.739v0.104c0,1.697,1.585,2.47,3.057,2.47
					c1.484,0,3.071-0.606,3.071-2.308c0-1.089-0.629-1.86-1.917-2.356c-0.319-0.123-0.657-0.236-0.981-0.348
					c-1.569-0.531-3.19-1.078-3.19-2.72c0-1.604,1.518-2.444,3.018-2.444c1.403,0,2.913,0.764,2.913,2.444v0.104h-0.739V8.988
					c0-1.201-1.157-1.75-2.232-1.75c-1.067,0-2.221,0.549-2.221,1.75c0,1.14,1.26,1.571,2.721,2.071
					c0.308,0.106,0.622,0.213,0.932,0.329c1.663,0.633,2.436,1.59,2.436,3.009C74.272,16.286,72.814,17.459,70.464,17.459z
					 M66.88,14.355c0.061,1.987,1.886,2.895,3.584,2.895c1.741,0,3.601-0.751,3.601-2.854c0-1.321-0.731-2.215-2.301-2.813
					c-0.309-0.115-0.62-0.223-0.926-0.328c-1.473-0.502-2.862-0.978-2.862-2.268c0-1.346,1.26-1.96,2.43-1.96
					c1.146,0,2.375,0.582,2.44,1.854h0.318c-0.062-1.461-1.429-2.129-2.7-2.129c-1.396,0-2.809,0.767-2.809,2.235
					c0,1.491,1.481,1.992,3.048,2.522c0.327,0.11,0.666,0.227,0.989,0.35c1.362,0.524,2.051,1.383,2.051,2.553
					c0,1.856-1.693,2.516-3.279,2.516c-1.544,0-3.201-0.804-3.264-2.572H66.88z"/>
			</g>
			<g>
				<path fill="#FFFFFF" d="M70.464,17.554c-1.875,0-3.892-1.033-3.892-3.304v-0.198h0.93v0.198c0,1.633,1.535,2.374,2.962,2.374
					c0.697,0,2.976-0.158,2.976-2.212c0-1.045-0.605-1.79-1.857-2.27c-0.314-0.119-0.649-0.234-0.975-0.344
					c-1.601-0.543-3.256-1.103-3.256-2.811c0-1.667,1.565-2.538,3.112-2.538c1.448,0,3.009,0.793,3.009,2.538v0.198h-0.931V8.988
					c0-1.136-1.106-1.654-2.137-1.654c-1.024,0-2.124,0.518-2.124,1.654c0,1.074,1.231,1.496,2.659,1.982
					c0.304,0.105,0.618,0.212,0.933,0.329c1.701,0.649,2.496,1.635,2.496,3.098C74.369,16.344,72.874,17.554,70.464,17.554z
					 M66.978,14.451c0.128,2.132,2.313,2.703,3.486,2.703c2.194,0,3.506-1.03,3.506-2.758c0-1.293-0.691-2.133-2.239-2.723
					c-0.306-0.115-0.618-0.222-0.92-0.327c-1.506-0.512-2.929-0.999-2.929-2.359c0-1.41,1.309-2.054,2.523-2.054
					c1.162,0,2.409,0.583,2.527,1.853h0.131c-0.117-1.331-1.401-1.938-2.6-1.938c-1.348,0-2.713,0.733-2.713,2.139
					c0,1.423,1.449,1.913,2.985,2.434c0.329,0.11,0.668,0.225,0.991,0.349c1.399,0.539,2.111,1.429,2.111,2.642
					c0,1.925-1.744,2.612-3.375,2.612c-1.563,0-3.238-0.809-3.354-2.573H66.978z"/>
				<path fill="#FFFFFF" d="M70.464,17.659c-1.925,0-3.995-1.067-3.995-3.409v-0.303h1.137v0.303c0,1.56,1.481,2.271,2.858,2.271
					c0.673,0,2.87-0.152,2.87-2.108c0-0.998-0.585-1.708-1.789-2.172c-0.314-0.12-0.648-0.232-0.97-0.343
					c-1.637-0.554-3.328-1.125-3.328-2.91c0-1.736,1.618-2.645,3.217-2.645c1.499,0,3.111,0.829,3.111,2.645v0.303h-1.139V8.988
					c0-1.064-1.052-1.551-2.031-1.551c-0.974,0-2.021,0.487-2.021,1.551c0,1,1.201,1.41,2.59,1.882l0.076,0.027
					c0.282,0.097,0.571,0.197,0.858,0.304c1.749,0.668,2.564,1.683,2.564,3.195C74.474,16.408,72.938,17.659,70.464,17.659z
					 M66.677,14.157v0.093c0,2.197,1.964,3.199,3.787,3.199c2.344,0,3.801-1.171,3.801-3.053c0-1.414-0.772-2.368-2.43-2.998
					c-0.285-0.107-0.572-0.208-0.852-0.303l-0.076-0.027c-1.467-0.5-2.731-0.931-2.731-2.081c0-1.209,1.157-1.759,2.229-1.759
					c1.079,0,2.241,0.55,2.241,1.759v0.094h0.721V8.988c0-1.672-1.505-2.434-2.903-2.434c-1.493,0-3.006,0.835-3.006,2.434
					c0,1.634,1.619,2.182,3.183,2.712c0.324,0.108,0.661,0.224,0.98,0.344c1.293,0.499,1.923,1.272,1.923,2.368
					c0,2.15-2.356,2.317-3.08,2.317c-1.478,0-3.067-0.776-3.067-2.479v-0.093H66.677z M70.464,17.258
					c-1.185,0-3.457-0.586-3.591-2.801l-0.006-0.11h0.34l0.007,0.097c0.111,1.701,1.763,2.476,3.25,2.476
					c1.581,0,3.271-0.658,3.271-2.507c0-1.166-0.688-2.021-2.047-2.543c-0.312-0.12-0.64-0.231-0.958-0.34l-0.027-0.009
					c-1.574-0.533-3.056-1.035-3.056-2.533c0-1.473,1.415-2.244,2.816-2.244c1.217,0,2.583,0.637,2.704,2.034l0.01,0.113h-0.34
					l-0.011-0.093c-0.111-1.216-1.296-1.759-2.422-1.759c-1.165,0-2.418,0.609-2.418,1.948c0,1.287,1.387,1.76,2.857,2.261
					l0.157,0.054c0.253,0.087,0.513,0.178,0.766,0.272c1.595,0.608,2.307,1.478,2.307,2.821
					C74.074,16.189,72.724,17.258,70.464,17.258z"/>
			</g>
		</g>
		<g>
			<g>
				<path fill="#FFFFFF" d="M76.492,6.854h0.531v2.56l4.97-2.56l0.234,0.443l-5.735,3.014V6.854z M79.786,11.708l3.103,5.176
					l-0.441,0.265l-2.822-4.707l-2.602,1.265v3.442h-0.531v-3.779L79.786,11.708z"/>
				<path fill="#FFFFFF" d="M82.411,17.293l-2.827-4.714l-2.457,1.193v3.482h-0.74v-3.95l3.438-1.733l0.052,0.083l3.155,5.265
					L82.411,17.293z M76.599,17.044h0.319v-3.402l2.748-1.337l2.817,4.7l0.264-0.157l-3.001-5.001l-3.147,1.587V17.044z
					 M76.387,10.484V6.749h0.74v2.493l4.909-2.528l0.333,0.626L76.387,10.484z M76.599,6.959v3.178l5.487-2.884l-0.139-0.258
					l-5.029,2.59V6.959H76.599z"/>
			</g>
			<g>
				<path fill="#FFFFFF" d="M82.38,17.423l-2.832-4.721l-2.326,1.13v3.515h-0.927v-4.102l3.568-1.8l3.3,5.508L82.38,17.423z
					 M76.692,16.949h0.131v-3.368l2.879-1.397l2.813,4.691l0.1-0.061l-2.904-4.847l-3.019,1.524V16.949z M76.295,10.64V6.656h0.927
					v2.43l4.855-2.499l0.421,0.792L76.295,10.64z M76.692,7.054V9.98l5.266-2.767l-0.047-0.092L76.823,9.74V7.054H76.692z"/>
				<path fill="#FFFFFF" d="M82.344,17.565l-2.836-4.729l-2.181,1.062v3.553h-1.138v-4.27l3.713-1.874l0.051,0.083l3.353,5.597
					L82.344,17.565z M79.588,12.564l2.828,4.713l0.604-0.361l-3.196-5.333l-3.425,1.727v3.933h0.719v-3.475L79.588,12.564z
					 M76.928,17.054h-0.34v-3.626l3.162-1.599l0.051,0.085l2.958,4.937l-0.279,0.167l-2.818-4.698l-2.733,1.327V17.054z
					 M76.189,10.813V6.551h1.138v2.362l4.793-2.465l0.52,0.974L76.189,10.813z M76.398,6.759v3.707l5.957-3.132l-0.322-0.607
					l-4.916,2.53V6.759H76.398z M76.588,10.154V6.949h0.34v2.619l5.027-2.587l0.144,0.278L76.588,10.154z"/>
			</g>
		</g>
		<g>
			<g>
				<path fill="#FFFFFF" d="M91.595,15.001l0.795,1.955l-0.484,0.192l-0.661-1.618h-5.896l-0.65,1.618l-0.483-0.192l0.794-1.955
					H91.595z M88.376,6.854l2.117,5.414H86.11l2.117-5.414H88.376z M86.891,11.737h2.821l-1.41-3.707L86.891,11.737z"/>
				<path fill="#FFFFFF" d="M84.756,17.285l-0.679-0.271l0.861-2.119h6.728l0.861,2.119l-0.681,0.27l-0.674-1.648h-5.756
					L84.756,17.285z M85.275,15.426h6.038l0.649,1.587l0.289-0.115l-0.727-1.792h-6.448l-0.726,1.792l0.288,0.115L85.275,15.426z
					 M90.646,12.371h-4.689l2.199-5.622h0.291l0.025,0.066L90.646,12.371z M86.264,12.162h4.075L88.3,6.959L86.264,12.162z
					 M89.865,11.841h-3.126l1.563-4.104L89.865,11.841z M87.042,11.632h2.52l-1.26-3.308L87.042,11.632z"/>
			</g>
			<g>
				<path fill="#FFFFFF" d="M84.81,17.405l-0.855-0.336l0.919-2.268h6.857l0.921,2.268l-0.856,0.336l-0.688-1.675h-5.626
					L84.81,17.405z M85.212,15.331h6.163l0.64,1.561l0.113-0.047l-0.666-1.643h-6.319l-0.668,1.643l0.111,0.045L85.212,15.331z
					 M90.785,12.466h-4.968l2.274-5.81h0.42L90.785,12.466z M86.402,12.066h3.799l-1.899-4.851L86.402,12.066z M90.003,11.937
					h-3.402l1.701-4.465L90.003,11.937z M87.179,11.536h2.246l-1.123-2.945L87.179,11.536z"/>
				<path fill="#FFFFFF" d="M84.869,17.542l-1.053-0.414l0.986-2.432h7l0.984,2.432l-1.051,0.413l-0.699-1.708h-5.485L84.869,17.542
					z M84.09,17.01l0.663,0.263l0.658-1.647h5.768l0.673,1.645l0.661-0.26l-0.853-2.104h-6.717L84.09,17.01z M91.956,17.024
					l-0.649-1.589h-6.023l-0.639,1.589l-0.308-0.12l0.736-1.809h6.459l0.733,1.809L91.956,17.024z M90.938,12.571h-5.274
					l2.357-6.021h0.561l0.026,0.067L90.938,12.571z M85.972,12.362h4.66l-2.192-5.603h-0.274L85.972,12.362z M90.354,12.173H86.25
					l2.052-5.246L90.354,12.173z M86.752,11.832h3.1l-1.55-4.065L86.752,11.832z M89.576,11.642h-2.55l1.275-3.345L89.576,11.642z
					 M87.331,11.431h1.941l-0.971-2.545L87.331,11.431z"/>
			</g>
		</g>
	</g>
	<g>
		<g>
			<polygon fill="#FFFFFF" points="22.7,1.946 22.7,4.314 26.338,4.314 			"/>
			<polygon fill="#FFFFFF" points="21.888,0.483 14.996,2.802 11.945,5.928 21.888,5.928 			"/>
			<polygon fill="#FFFFFF" points="21.888,12.279 15.696,19.663 13.944,16.41 			"/>
			<polyline fill="#FFFFFF" points="18.675,17.242 20.555,18.554 16.646,19.663 18.6,17.332 			"/>
			<polygon fill="#FFFFFF" points="7.039,13.414 0.445,16.009 8.535,16.637 			"/>
			<polygon fill="#FFFFFF" points="12.398,6.683 7.539,12.73 9.822,17.646 21.888,9.793 21.888,6.683 			"/>
		</g>
		<polygon fill="#FFFFFF" points="21.888,9.793 9.822,17.646 21.888,11.37 		"/>
	</g>
</g>
</svg>
